<mxfile host="app.diagrams.net" modified="2024-03-31T18:57:25.161Z" agent="Mozilla/5.0 (Windows NT 10.0; Win64; x64) AppleWebKit/537.36 (KHTML, like Gecko) Chrome/123.0.0.0 Safari/537.36" version="24.2.1" etag="4gdHtCmaIeRv6TjvyhDN" type="github">
  <diagram name="PÃ¡gina-1" id="gov6ScSt4993zvuRvd0M">
    <mxGraphModel>
      <root>
        <mxCell id="0" />
        <mxCell id="1" parent="0" />
      </root>
    </mxGraphModel>
  </diagram>
</mxfile>
